<?xml version="1.0" standalone="no"?>
<!DOCTYPE svg PUBLIC "-//W3C//DTD SVG 20010904//EN"
 "http://www.w3.org/TR/2001/REC-SVG-20010904/DTD/svg10.dtd">
<svg version="1.0" xmlns="http://www.w3.org/2000/svg"
 width="1000.000000pt" height="1000.000000pt" viewBox="0 0 1000.000000 1000.000000"
 preserveAspectRatio="xMidYMid meet">
<metadata>
Created by potrace 1.14, written by Peter Selinger 2001-2017
</metadata>
<g transform="translate(0.000000,1000.000000) scale(0.100000,-0.100000)"
fill="#000000" stroke="none">
<path d="M122 9981 c-24 -9 -61 -33 -83 -53 l-39 -36 0 -4921 0 -4922 25 -24
24 -25 4932 0 4932 0 28 31 c15 17 35 46 43 64 14 30 16 508 16 4873 0 4312
-2 4844 -15 4876 -19 46 -79 106 -130 131 -40 20 -89 20 -4865 22 -4583 2
-4827 1 -4868 -16z"/>
</g>
</svg>
